HIERARCHY
ROOT root
{
	OFFSET	0	13.1	24.9
	CHANNELS 6  Xposition Yposition Zposition Xrotation Yrotation Zrotation
	JOINT spine_1
	{
		OFFSET	0	9.99999	0
		CHANNELS 3  Xrotation Yrotation Zrotation
		JOINT spine_2
		{
			OFFSET	0	112	-10
			CHANNELS 3  Xrotation Yrotation Zrotation
			JOINT spine_3
			{
				OFFSET	0	206.5	19.3
				CHANNELS 3  Xrotation Yrotation Zrotation
				JOINT spine_4
				{
					OFFSET	0	110.4	14.6
					CHANNELS 3  Xrotation Yrotation Zrotation
					JOINT neck_1
					{
						OFFSET	0	71.8	-50.3
						CHANNELS 3  Xrotation Yrotation Zrotation
						JOINT neck_2
						{
							OFFSET	0	86.2	-25.8
							CHANNELS 3  Xrotation Yrotation Zrotation
							JOINT head_ee
							{
								OFFSET	0	179.8	-8.7
								CHANNELS 3  Xrotation Yrotation Zrotation
								End Site
								{
									OFFSET	1	0	0
								}
							}
						}
					}
					JOINT left_clavicle
					{
						OFFSET	-43.2	22.4	-70.8
						CHANNELS 3  Xrotation Yrotation Zrotation
						JOINT left_shoulder
						{
							OFFSET	-93.9	-5.79999	48.7
							CHANNELS 3  Xrotation Yrotation Zrotation
							JOINT left_elbow
							{
								OFFSET	-291.4	-30.8	15.2
								CHANNELS 3  Xrotation Yrotation Zrotation
								JOINT left_lowarm_twist
								{
									OFFSET	-110.7	-3.89999	13.6
									CHANNELS 3  Xrotation Yrotation Zrotation
									JOINT left_hand
									{
										OFFSET	-110.7	-3.89999	13.6
										CHANNELS 3  Xrotation Yrotation Zrotation
										JOINT left_ee
										{
											OFFSET	-80.8	-5.10001	12.1
											CHANNELS 3  Xrotation Yrotation Zrotation
											End Site
											{
												OFFSET	1	0	0
											}
										}
									}
								}
							}
						}
					}
					JOINT right_clavicle
					{
						OFFSET	43.2	22.4	-70.8
						CHANNELS 3  Xrotation Yrotation Zrotation
						JOINT right_shoulder
						{
							OFFSET	93.9	-5.79999	48.7
							CHANNELS 3  Xrotation Yrotation Zrotation
							JOINT right_elbow
							{
								OFFSET	291.4	-30.8	15.2
								CHANNELS 3  Xrotation Yrotation Zrotation
								JOINT right_lowarm_twist
								{
									OFFSET	110.7	-3.89999	13.6
									CHANNELS 3  Xrotation Yrotation Zrotation
									JOINT right_hand
									{
										OFFSET	110.7	-3.89999	13.6
										CHANNELS 3  Xrotation Yrotation Zrotation
										JOINT right_ee
										{
											OFFSET	80.8	-5.10001	12.1
											CHANNELS 3  Xrotation Yrotation Zrotation
											End Site
											{
												OFFSET	1	0	0
											}
										}
									}
								}
							}
						}
					}
				}
			}
		}
	}
	JOINT left_hip
	{
		OFFSET	-82.8	-127.5	0.300001
		CHANNELS 3  Xrotation Yrotation Zrotation
		JOINT left_knee
		{
			OFFSET	-28.2	-396.7	2.2
			CHANNELS 3  Xrotation Yrotation Zrotation
			JOINT left_ankle
			{
				OFFSET	-11.7	-411.3	35.4
				CHANNELS 3  Xrotation Yrotation Zrotation
				JOINT left_toes
				{
					OFFSET	0	-60	-88.6
					CHANNELS 3  Xrotation Yrotation Zrotation
					JOINT left_foot_ee
					{
						OFFSET	-22.5	-16.5	-42.2
						CHANNELS 3  Xrotation Yrotation Zrotation
						End Site
						{
							OFFSET	1	0	0
						}
					}
				}
			}
		}
	}
	JOINT right_hip
	{
		OFFSET	82.8	-127.5	0.300001
		CHANNELS 3  Xrotation Yrotation Zrotation
		JOINT right_knee
		{
			OFFSET	28.2	-396.7	2.2
			CHANNELS 3  Xrotation Yrotation Zrotation
			JOINT right_ankle
			{
				OFFSET	11.7	-411.3	35.4
				CHANNELS 3  Xrotation Yrotation Zrotation
				JOINT right_toes
				{
					OFFSET	0	-60	-88.6
					CHANNELS 3  Xrotation Yrotation Zrotation
					JOINT right_foot_ee
					{
						OFFSET	22.5	-16.5	-42.2
						CHANNELS 3  Xrotation Yrotation Zrotation
						End Site
						{
							OFFSET	1	0	0
						}
					}
				}
			}
		}
	}
}
MOTION
Frames: 9
Frame Time: 0.02
2872.08244393 710.181 -1609.02060726 18.9625209242 57.6205610244 -9.22764114812 -0.81914 -0.204408 -1.59757 -0.817726 -0.10235 -1.60733 -0.813829 0.260414 -1.5894 -0.817355 0.00616369 -1.61058 -28.9294 -5.30062 -5.09985 -29.0291 -8.37066 -7.8265 -0.0 0.0 -0.0 3.68544 13.2504 7.64336 8.78433 -20.3133 64.2097 1.14027 -29.4592 0.299782 -66.105 -6.05027 5.25033 -1.44497 16.4003 -2.17714 -0.0 0.0 -0.0 9.89236 25.1534 -18.7114 -21.4921 12.7598 -59.6992 1.04174 27.2952 -0.252947 79.268 3.75441 8.56797 2.08797 -20.7605 -21.2081 0.0 0.0 0.0 6.3712 32.2082 -14.7394 -19.4234 0.302053 2.95112 30.3895 -2.55077 -3.97445 -14.9401 0.0 0.0 -0.0 0.0 -0.0 14.2528 22.5543 -11.3959 -58.0678 1.995 -8.30914 -3.33112 -24.1824 -0.509977 12.348 -0.0 -0.0 0.0 0.0 0.0 
2859.55654081 710.538 -1602.7896191 18.1314864881 57.5104866181 -8.37968863139 -0.784587 -0.299798 -1.69849 -0.783003 -0.191128 -1.71412 -0.77606 0.196663 -1.71349 -0.780149 -0.076377 -1.72304 -27.5826 -4.36833 -3.33721 -27.6686 -7.14469 -5.52179 -0.0 0.0 -0.0 3.64248 13.0947 7.56787 8.72516 -20.4802 62.3961 1.22896 -31.3314 0.344662 -66.3648 -6.08324 5.25484 -2.71985 15.9727 -10.2685 -0.0 0.0 -0.0 9.58381 24.0648 -18.1295 -21.5052 12.1059 -59.3143 0.895909 23.9317 -0.189877 79.0653 3.7312 8.5562 2.48913 -21.332 -23.9594 0.0 0.0 0.0 3.22152 34.2296 -13.6155 -13.453 0.316176 2.0356 28.3712 -7.22806 -3.81694 -14.1096 0.0 0.0 -0.0 0.0 -0.0 17.3526 21.8488 -12.9125 -58.2455 2.01354 -8.32932 -5.8479 -25.1543 -0.903663 12.0149 -0.0 -0.0 0.0 0.0 0.0 
2847.80813856 715.253 -1591.7599102 18.6875432717 56.7440287011 -9.36476643872 -0.920941 -0.118594 -1.75081 -0.919235 -0.00696255 -1.75481 -0.917864 0.389586 -1.71104 -0.921931 0.114513 -1.75108 -28.9214 -3.60174 -2.50943 -28.9935 -6.0225 -4.42034 -0.0 0.0 -0.0 3.82895 13.1023 7.87858 8.56473 -20.3493 60.82 1.29315 -32.6417 0.37867 -67.6232 -6.24314 5.2746 -3.56463 15.3096 -16.0074 -0.0 0.0 -0.0 9.60778 24.2458 -18.1656 -21.8934 11.1489 -59.1078 0.627798 17.2754 -0.0953692 78.9979 3.7235 8.55227 2.87226 -21.6522 -26.5737 0.0 0.0 0.0 1.86041 36.8972 -13.1296 -14.1323 0.31938 2.13978 28.8216 -6.92437 -3.86206 -14.4695 0.0 0.0 -0.0 0.0 -0.0 18.3931 19.5081 -12.5216 -47.6459 1.02338 -7.03344 -6.26231 -24.9166 -0.967167 11.4421 -0.0 -0.0 0.0 0.0 0.0 
2841.18273179 718.253 -1582.23865109 18.2019668291 57.9030782916 -8.81878940415 -0.950731 -0.158342 -1.88443 -0.948756 -0.0381317 -1.89069 -0.946103 0.390831 -1.85026 -0.950869 0.0937672 -1.88874 -28.124 -3.30194 -1.13038 -28.2043 -5.9275 -2.90655 -0.0 0.0 -0.0 4.07017 12.9171 8.27771 8.02164 -20.8632 59.3146 1.44367 -35.5684 0.463096 -67.4871 -6.22581 5.27263 -4.17571 14.3964 -20.5829 -0.0 0.0 -0.0 9.58725 22.843 -18.25 -21.3205 10.3396 -58.9372 0.504726 14.0379 -0.0621422 78.9005 3.71237 8.54658 3.01547 -22.578 -27.7464 0.0 0.0 0.0 0.770363 39.4021 -12.4649 -9.91227 0.279498 1.49365 26.9752 -7.46346 -3.66325 -14.9606 0.0 0.0 -0.0 0.0 -0.0 19.3971 20.8205 -13.4779 -41.1514 0.541637 -6.1587 -8.04129 -25.1955 -1.24707 10.0366 -0.0 -0.0 0.0 0.0 0.0 
2819.1625212 715.649 -1571.21751002 17.5597166954 57.8126265422 -8.05663595917 -0.897888 -0.391506 -2.0284 -0.895636 -0.261668 -2.04919 -0.884422 0.20665 -2.05546 -0.890297 -0.120494 -2.0623 -26.979 -2.06579 -0.201222 -27.0131 -3.89719 -1.30134 -0.0 0.0 -0.0 4.13956 11.9981 8.37878 7.62236 -21.8461 55.3443 1.60294 -38.4484 0.558994 -69.3412 -6.46198 5.29586 -5.05103 13.7922 -27.0313 -0.0 0.0 -0.0 9.21799 21.2448 -17.5628 -22.5452 9.43752 -58.472 0.374 10.4963 -0.0343537 78.7782 3.69842 8.5394 3.39147 -22.978 -30.3943 0.0 0.0 0.0 -4.37604 42.7936 -9.26369 -4.62149 0.162501 0.690453 26.8695 -10.5166 -3.70509 -14.4187 0.0 0.0 -0.0 0.0 -0.0 22.3045 18.3007 -14.2614 -30.8746 -0.00957518 -4.68123 -14.6198 -23.7663 -2.26847 7.97271 -0.0 -0.0 0.0 0.0 0.0 
2819.11155169 715.649 -1571.40368301 17.5454435852 57.7842086478 -8.03976822903 -0.897888 -0.391506 -2.0284 -0.895636 -0.261668 -2.04919 -0.884422 0.20665 -2.05546 -0.890297 -0.120494 -2.0623 -26.979 -2.06579 -0.201222 -27.0131 -3.89719 -1.30134 -0.0 0.0 -0.0 4.13956 11.9981 8.37878 7.62236 -21.8461 55.3443 1.60294 -38.4484 0.558994 -69.3412 -6.46198 5.29586 -5.05103 13.7922 -27.0313 -0.0 0.0 -0.0 9.21799 21.2448 -17.5628 -22.5452 9.43752 -58.472 0.374 10.4963 -0.0343537 78.7782 3.69842 8.5394 3.39147 -22.978 -30.3943 0.0 0.0 0.0 -4.37604 42.7936 -9.26369 -4.62149 0.162501 0.690453 26.8695 -10.5166 -3.70509 -14.4187 0.0 0.0 -0.0 0.0 -0.0 22.3045 18.3007 -14.2614 -30.8746 -0.00957518 -4.68123 -14.6198 -23.7663 -2.26847 7.97271 -0.0 -0.0 0.0 0.0 0.0 
2810.70621966 714.903 -1566.27837333 17.0791403615 57.9983304531 -7.83013426983 -0.906466 -0.50995 -2.01559 -0.904286 -0.380687 -2.04394 -0.888733 0.0895858 -2.07714 -0.894674 -0.239513 -2.06524 -26.9711 -1.7991 -0.96561 -26.9897 -3.08879 -1.86962 -0.0 0.0 -0.0 4.47921 11.4504 8.94984 8.11032 -22.0923 53.9504 1.68039 -39.7712 0.607852 -69.7574 -6.51506 5.30001 -5.20141 15.0267 -27.2279 -0.0 0.0 -0.0 8.9848 21.7203 -17.0057 -22.7795 9.42956 -58.3118 0.327024 9.20207 -0.0263179 79.7923 3.81462 8.59802 3.42871 -23.262 -30.7079 0.0 0.0 0.0 -5.91588 46.1482 -7.71722 -1.16505 0.0462152 0.172817 26.5791 -11.328 -3.68766 -14.2693 0.0 0.0 -0.0 0.0 -0.0 22.4867 18.4288 -14.531 -26.9121 -0.149898 -4.08942 -12.197 -22.1359 -1.87452 8.50699 -0.0 -0.0 0.0 0.0 0.0 
2795.84625406 710.652 -1569.96867435 17.6263447296 57.9967018262 -8.52581833782 -0.863682 -0.513471 -2.0388 -0.861451 -0.382724 -2.06733 -0.845655 0.0912917 -2.10046 -0.85173 -0.241509 -2.08853 -26.3094 -1.29013 0.556521 -26.3246 -2.70605 -0.161769 -0.0 0.0 -0.0 4.48593 11.083 8.95718 7.98054 -22.5651 53.0471 1.80552 -41.8055 0.689609 -70.5841 -6.62058 5.30712 -5.61439 15.9853 -29.4754 -0.0 0.0 -0.0 8.76293 20.7209 -16.595 -23.6675 8.70515 -57.6909 0.28597 8.06313 -0.0201553 79.1825 3.74462 8.56302 3.40983 -25.3342 -30.9584 0.0 0.0 0.0 -8.36503 46.8859 -6.55212 0.161206 -0.00667163 -0.0238388 26.9298 -14.4884 -3.80107 -13.6169 0.0 0.0 -0.0 0.0 -0.0 24.2829 18.3951 -15.0845 -23.6796 -0.233833 -3.60051 -14.7822 -20.9735 -2.26698 7.05007 -0.0 -0.0 0.0 0.0 0.0 
2786.92856732 706.705 -1566.58757738 16.7673485066 57.9547632869 -7.90694762781 -0.900683 -0.303441 -2.17073 -0.898076 -0.164731 -2.18563 -0.889812 0.33212 -2.16653 -0.896362 -0.0141256 -2.19178 -26.4446 -0.924807 1.29969 -26.4517 -2.29493 0.721249 -0.0 0.0 -0.0 5.07903 11.2585 9.98007 8.94968 -22.5508 52.0218 1.9758 -44.3799 0.805969 -71.4365 -6.72946 5.31284 -5.74827 16.7896 -29.8207 -0.0 0.0 -0.0 8.75873 20.1766 -16.6279 -24.2973 8.81921 -57.3712 0.244269 6.89961 -0.0147253 79.5188 3.78318 8.58241 3.17501 -26.283 -29.5468 0.0 0.0 0.0 -9.61515 46.1274 -5.13333 1.63511 -0.070778 -0.240917 27.6645 -14.1945 -3.87954 -13.6169 0.0 0.0 -0.0 0.0 -0.0 25.2588 18.3396 -15.3698 -18.8448 -0.307597 -2.86252 -13.7217 -15.675 -2.06969 6.20771 -0.0 -0.0 0.0 0.0 0.0 
